<svg xmlns="http://www.w3.org/2000/svg" width="16" height="16" viewBox="0 0 16 16" fill="none">
    <path d="M5.33268 8.00008H7.99935M7.99935 8.00008H10.666M7.99935 8.00008V10.6667M7.99935 8.00008V5.33341M2.66602 11.2002V4.80021C2.66602 4.05348 2.66602 3.67983 2.81134 3.39461C2.93917 3.14373 3.143 2.9399 3.39388 2.81207C3.6791 2.66675 4.05274 2.66675 4.79948 2.66675H11.1995C11.9462 2.66675 12.3194 2.66675 12.6046 2.81207C12.8555 2.9399 13.0597 3.14373 13.1875 3.39461C13.3328 3.67983 13.3328 4.0532 13.3328 4.79993V11.2C13.3328 11.9467 13.3328 12.3201 13.1875 12.6053C13.0597 12.8562 12.8555 13.0604 12.6046 13.1882C12.3197 13.3334 11.947 13.3334 11.2017 13.3334H4.79729C4.05201 13.3334 3.67882 13.3334 3.39388 13.1882C3.143 13.0604 2.93917 12.8562 2.81134 12.6053C2.66602 12.3201 2.66602 11.9469 2.66602 11.2002Z" stroke="#262A2F" stroke-width="1.5" stroke-linecap="round" stroke-linejoin="round"/>
</svg>