<?xml version="1.0" encoding="UTF-8" standalone="no"?>
<!-- Created with Inkscape (http://www.inkscape.org/) -->

<svg
   width="110"
   height="110"
   viewBox="0 0 29.104156 29.104157"
   version="1.1"
   id="svg1"
   xml:space="preserve"
   xmlns="http://www.w3.org/2000/svg"
   xmlns:svg="http://www.w3.org/2000/svg"><defs
     id="defs1" /><g
     id="layer2"
     style="display:none"><rect
       style="fill:none;fill-opacity:1;stroke:#ffffff;stroke-width:0.506954;stroke-dasharray:none;stroke-opacity:0.2;paint-order:stroke fill markers"
       id="rect1"
       width="18.01388"
       height="8.4888792"
       x="8.9366865"
       y="10.18567"
       rx="4.57131" /></g><g
     id="layer1"
     transform="translate(-9.3996706)"
     style="display:none"><circle
       style="display:inline;fill:#a9aba8;fill-opacity:1;stroke:none;stroke-width:3.53955;stroke-opacity:0.2;paint-order:stroke fill markers"
       id="path1"
       cx="24.137056"
       cy="14.526131"
       r="3.4395833" /></g><g
     id="layer3"
     transform="rotate(-90,96.915867,131.83246)"><path
       d="m 205.30245,47.779099 c 0,1.31514 1.06611,2.38125 2.38125,2.38125 0.24058,0 0.47281,-0.0356 0.69173,-0.10194 -0.29636,0.97779 -1.20468,1.68941 -2.27923,1.68941 -1.31513,0 -2.38125,-1.06606 -2.38125,-2.38119 0,-1.07455 0.71175,-1.98286 1.68953,-2.27922 -0.0663,0.21891 -0.10203,0.45111 -0.10203,0.69169 z"
       stroke="#ffffff"
       stroke-width="0.529167"
       stroke-linecap="round"
       stroke-linejoin="round"
       id="path1-5"
       style="fill:none;stroke-width:0.34395821;stroke-dasharray:none" /><path
       d="m 223.83196,46.51308 c 0,1.31514 1.06611,2.38125 2.38125,2.38125 0.24058,0 0.47281,-0.0356 0.69172,-0.10194 -0.29636,0.97779 -1.20467,1.68941 -2.27922,1.68941 -1.31513,0 -2.38125,-1.06606 -2.38125,-2.38119 0,-1.07455 0.71174,-1.98286 1.68952,-2.27922 -0.0663,0.21891 -0.10202,0.45111 -0.10202,0.69169 z"
       stroke="#ffffff"
       stroke-width="0.529167"
       stroke-linecap="round"
       stroke-linejoin="round"
       id="path5"
       style="fill:none;stroke:none" /><g
       id="g15"
       transform="translate(112.15555,-78.422968)"><circle
         style="fill:none;fill-opacity:1;stroke:#fffdfe;stroke-width:0.345369;stroke-dasharray:none;stroke-opacity:1;paint-order:stroke fill markers"
         id="path7"
         cx="136.42741"
         cy="-102.07454"
         r="1.3381338"
         transform="rotate(90)" /><path
         style="fill:none;fill-opacity:1;stroke:#ffffff;stroke-width:0.289745;stroke-linecap:round;stroke-dasharray:none;stroke-opacity:1;paint-order:stroke fill markers"
         d="m 100.62743,134.96762 c -0.5228,-0.53654 -0.53656,-0.5503 -0.53656,-0.5503"
         id="path12" /><path
         style="fill:none;fill-opacity:1;stroke:#ffffff;stroke-width:0.289745;stroke-linecap:round;stroke-dasharray:none;stroke-opacity:1;paint-order:stroke fill markers"
         d="m 104.07217,138.40142 c -0.5228,-0.53654 -0.53656,-0.5503 -0.53656,-0.5503"
         id="path13" /><path
         style="fill:none;fill-opacity:1;stroke:#ffffff;stroke-width:0.289745;stroke-linecap:round;stroke-dasharray:none;stroke-opacity:1;paint-order:stroke fill markers"
         d="m 103.51125,134.96075 c 0.53654,-0.5228 0.5503,-0.53655 0.5503,-0.53655"
         id="path14" /><path
         style="fill:none;fill-opacity:1;stroke:#ffffff;stroke-width:0.289745;stroke-linecap:round;stroke-dasharray:none;stroke-opacity:1;paint-order:stroke fill markers"
         d="m 100.09821,138.40221 c 0.53654,-0.5228 0.5503,-0.53656 0.5503,-0.53656"
         id="path15" /><path
         style="fill:none;fill-opacity:1;stroke:#ffffff;stroke-width:0.289745;stroke-linecap:round;stroke-dasharray:none;stroke-opacity:1;paint-order:stroke fill markers"
         d="m 102.07307,134.36182 c 0.01,-0.74907 0.01,-0.76853 0.01,-0.76853"
         id="path16" /><path
         style="fill:none;fill-opacity:1;stroke:#ffffff;stroke-width:0.289745;stroke-linecap:round;stroke-dasharray:none;stroke-opacity:1;paint-order:stroke fill markers"
         d="m 102.08081,139.22568 c 0.01,-0.74907 0.01,-0.76853 0.01,-0.76853"
         id="path17" /><path
         style="fill:none;fill-opacity:1;stroke:#ffffff;stroke-width:0.289745;stroke-linecap:round;stroke-dasharray:none;stroke-opacity:1;paint-order:stroke fill markers"
         d="m 104.1171,136.39613 c 0.74907,0.01 0.76852,0.01 0.76852,0.01"
         id="path18" /><path
         style="fill:none;fill-opacity:1;stroke:#ffffff;stroke-width:0.289745;stroke-linecap:round;stroke-dasharray:none;stroke-opacity:1;paint-order:stroke fill markers"
         d="m 99.270237,136.41622 c 0.749063,0.01 0.768523,0.01 0.768523,0.01"
         id="path19" /></g></g></svg>
