<svg width="16" height="16" viewBox="0 0 16 16" fill="none" xmlns="http://www.w3.org/2000/svg">
    <path d="M2.66699 13.3336H13.3337M2.66699 13.3336V10.6669L8.00033 5.33357M2.66699 13.3336L5.33366 13.3336L10.667 8.00023M8.00033 5.33357L9.91274 3.42114L9.91389 3.42C10.1772 3.15675 10.309 3.02489 10.461 2.9755C10.5949 2.93199 10.7392 2.93199 10.873 2.9755C11.0249 3.02485 11.1567 3.15656 11.4195 3.41945L12.5794 4.57931C12.8434 4.84332 12.9755 4.97539 13.0249 5.12761C13.0684 5.2615 13.0684 5.40573 13.0249 5.53963C12.9755 5.69174 12.8436 5.8236 12.58 6.08724L12.5794 6.0878L10.667 8.00023M8.00033 5.33357L10.667 8.00023" stroke="white" stroke-width="1.5" stroke-linecap="round" stroke-linejoin="round"/>
</svg>