<?xml version="1.0" encoding="UTF-8" standalone="no"?>
<svg
   width="16"
   height="16"
   viewBox="0 0 16 16"
   fill="none"
   version="1.1"
   id="svg1"
   sodipodi:docname="eye-open-grey-16.svg"
   inkscape:version="1.4.2 (ebf0e940, 2025-05-08)"
   xml:space="preserve"
   xmlns:inkscape="http://www.inkscape.org/namespaces/inkscape"
   xmlns:sodipodi="http://sodipodi.sourceforge.net/DTD/sodipodi-0.dtd"
   xmlns="http://www.w3.org/2000/svg"
   xmlns:svg="http://www.w3.org/2000/svg"><defs
     id="defs1"><inkscape:path-effect
       effect="powermask"
       id="path-effect129"
       is_visible="true"
       lpeversion="1"
       uri="#mask-powermask-path-effect129"
       invert="false"
       hide_mask="false"
       background="true"
       background_color="#ffffffff" /><inkscape:path-effect
       effect="taper_stroke"
       start_shape="center | center"
       end_shape="center | center"
       id="path-effect100"
       is_visible="true"
       lpeversion="1"
       stroke_width="0.13"
       subpath="1"
       attach_start="0.5"
       end_offset="0.3"
       start_smoothing="0.5"
       end_smoothing="0.5"
       jointype="extrapolated"
       miter_limit="100" /><inkscape:path-effect
       effect="skeletal"
       id="path-effect99"
       is_visible="true"
       lpeversion="1"
       pattern="M 0.189636,1.498122 C 0.189636,1.498122 0.284454,0.436162 2e-7,0"
       copytype="single_stretched"
       prop_scale="0.5"
       scale_y_rel="false"
       spacing="3.2"
       normal_offset="0"
       tang_offset="0"
       prop_units="false"
       vertical_pattern="false"
       hide_knot="false"
       fuse_tolerance="0" /><inkscape:path-effect
       effect="fill_between_many"
       method="bsplinespiro"
       autoreverse="false"
       close="false"
       join="false"
       linkedpaths="#path99,0,1"
       id="path-effect101" /><filter
       id="mask-powermask-path-effect116_inverse"
       inkscape:label="filtermask-powermask-path-effect116"
       style="color-interpolation-filters:sRGB"
       height="100"
       width="100"
       x="-50"
       y="-50"><feColorMatrix
         id="mask-powermask-path-effect116_primitive1"
         values="1"
         type="saturate"
         result="fbSourceGraphic" /><feColorMatrix
         id="mask-powermask-path-effect116_primitive2"
         values="-1 0 0 0 1 0 -1 0 0 1 0 0 -1 0 1 0 0 0 1 0 "
         in="fbSourceGraphic" /></filter><filter
       id="mask-powermask-path-effect127_inverse"
       inkscape:label="filtermask-powermask-path-effect127"
       style="color-interpolation-filters:sRGB"
       height="100"
       width="100"
       x="-50"
       y="-50"><feColorMatrix
         id="mask-powermask-path-effect127_primitive1"
         values="1"
         type="saturate"
         result="fbSourceGraphic" /><feColorMatrix
         id="mask-powermask-path-effect127_primitive2"
         values="-1 0 0 0 1 0 -1 0 0 1 0 0 -1 0 1 0 0 0 1 0 "
         in="fbSourceGraphic" /></filter></defs><sodipodi:namedview
     id="namedview1"
     pagecolor="#505050"
     bordercolor="#eeeeee"
     borderopacity="1"
     inkscape:showpageshadow="0"
     inkscape:pageopacity="0"
     inkscape:pagecheckerboard="0"
     inkscape:deskcolor="#505050"
     inkscape:zoom="32.413094"
     inkscape:cx="6.6948253"
     inkscape:cy="12.032175"
     inkscape:window-width="1648"
     inkscape:window-height="981"
     inkscape:window-x="4"
     inkscape:window-y="36"
     inkscape:window-maximized="0"
     inkscape:current-layer="g135"
     showguides="true"><sodipodi:guide
       position="8.0210551,10.629177"
       orientation="1,0"
       id="guide95"
       inkscape:locked="false" /><sodipodi:guide
       position="9.9442321,7.9789449"
       orientation="0,-1"
       id="guide96"
       inkscape:locked="false" /></sodipodi:namedview><g
     id="g120"
     style="display:inline"
     inkscape:label="open"><path
       id="path118"
       style="display:inline;fill:#6b6f73;fill-opacity:1;stroke:#6b6f73;stroke-width:0.328;stroke-linecap:round;stroke-linejoin:round;stroke-dasharray:none;stroke-opacity:1"
       d="m 8.0214844,2.8066406 c -4.8615629,0 -6.7753906,5.2460938 -6.7753906,5.2460938 -10e-8,0 2.111636,5.2719206 6.7734374,5.2402346 4.7277518,-0.03214 6.8183598,-5.2343752 6.8183598,-5.2343752 0,0 -1.921894,-5.2519532 -6.8164066,-5.2519532 z m -0.023437,1.2753906 c 3.6476616,-0.02702 6.2285156,3.9609376 6.2285156,3.9609376 0,0 -1.418682,4.6699222 -6.2011719,4.6699222 -4.7824888,0 -6.2167968,-4.6933598 -6.2167968,-4.6933598 0,0 2.5417922,-3.9104802 6.1894531,-3.9375 z"
       inkscape:label="eye-2" /><ellipse
       style="fill:none;fill-opacity:1;stroke:#6b6f73;stroke-width:0.601483;stroke-linecap:round;stroke-linejoin:round;stroke-dasharray:none;stroke-opacity:1"
       id="ellipse118"
       inkscape:label="iris-2"
       ry="3.9505339"
       rx="3.6786995"
       cy="8.0397158"
       cx="8.0314779" /><ellipse
       style="display:inline;fill:#6b6f73;fill-opacity:1;stroke:#6b6f73;stroke-width:0.696817;stroke-linecap:round;stroke-linejoin:round;stroke-dasharray:none;stroke-opacity:1"
       id="ellipse119"
       inkscape:label="pupil-2"
       ry="1.5461496"
       rx="1.3978761"
       cy="8.0561905"
       cx="8.0067663" /><ellipse
       style="display:inline;fill:#6b6f73;fill-opacity:1;stroke:#6b6f73;stroke-width:0.696817;stroke-linecap:round;stroke-linejoin:round;stroke-dasharray:none;stroke-opacity:1"
       id="ellipse120"
       inkscape:label="pupil-2"
       ry="1.5461496"
       rx="1.3978761"
       cy="8.0561905"
       cx="8.0067663" /></g><g
     id="g135"
     inkscape:label="closed"
     style="display:none"><path
       id="path124"
       style="baseline-shift:baseline;display:inline;overflow:visible;opacity:1;vector-effect:none;fill:#6b6f73;fill-opacity:1;stroke-linecap:round;stroke-linejoin:round;enable-background:accumulate;stop-color:#000000;stop-opacity:1"
       inkscape:label="eye-2-path"
       d="m 8.0214844,2.640625 c -2.8411288,0 -4.7214557,1.8486387 -5.7929688,3.3847656 -0.452525,1.4048009 -0.3598499,2.9430465 0.2480469,4.3203124 0.2815279,0.370925 0.606294,0.753585 0.9765625,1.117188 L 3.8847656,11.03125 C 2.4580489,9.7287606 2.0058594,8.0683594 2.0058594,8.0683594 c 0,0 2.3445266,-3.7932927 5.9921875,-3.8203125 0.7992591,-0.00592 1.5385228,0.1727584 2.2070311,0.4570312 l 1.125,-1.125 C 10.414877,3.0224402 9.316301,2.640625 8.0214844,2.640625 Z m 4.5449216,1.8828125 -0.970703,0.9726563 c 1.552208,1.1118801 2.464844,2.5624999 2.464844,2.5625 0,0 -1.268291,4.5058592 -6.0507814,4.5058592 -1.1364184,0 -2.0723801,-0.253621 -2.8378906,-0.640625 l -0.5175781,0.517578 c 0.9329055,0.616299 2.0530739,1.042122 3.3652343,1.033203 2.6892318,-0.01828 4.5795998,-1.767811 5.7089848,-3.273437 C 14.279169,8.7104992 14.200643,7.0459872 13.529297,5.5742188 13.250245,5.2208464 12.930213,4.8627902 12.566406,4.5234375 Z" /><path
       id="path105"
       style="baseline-shift:baseline;display:inline;overflow:visible;opacity:1;vector-effect:none;fill:#6b6f73;stroke-linecap:round;stroke-linejoin:round;enable-background:accumulate;stop-color:#000000;stop-opacity:1"
       inkscape:label="iris-2-path"
       d="m 8.03125,3.7890625 c -2.2062326,0 -3.9785156,1.9168314 -3.9785156,4.25 0,0.8156232 0.2158087,1.5803925 0.5917968,2.2304685 L 5.0859375,9.828125 C 4.8113662,9.3006122 4.6542969,8.6914553 4.6542969,8.0390625 c 0,-2.0304706 1.5198065,-3.6484375 3.3769531,-3.6484375 0.6927555,0 1.3391101,0.2255857 1.8769531,0.6132812 L 10.335938,4.5742188 C 9.6864793,4.0799733 8.8918274,3.7890625 8.03125,3.7890625 Z m 3.335938,1.9335937 -0.4375,0.4375 c 0.304394,0.5470969 0.480468,1.1895356 0.480468,1.8789063 0,2.0304705 -1.5217594,3.6503905 -3.378906,3.6503905 -0.726765,0 -1.4025004,-0.248195 -1.9550781,-0.671875 l -0.4257813,0.427734 c 0.6627477,0.530887 1.4860628,0.845704 2.3808594,0.845704 2.206233,0 3.980469,-1.918785 3.980469,-4.2519535 0,-0.8517803 -0.236903,-1.6486137 -0.644531,-2.3164063 z" /><path
       id="path129"
       style="baseline-shift:baseline;display:inline;overflow:visible;opacity:1;vector-effect:none;fill:#6b6f73;fill-opacity:1;stroke-width:1.2356;stroke-linecap:round;stroke-linejoin:round;enable-background:accumulate;stop-color:#000000;stop-opacity:1"
       inkscape:label="pupil-2-pth"
       d="M 8.0058594,6.1464844 A 1.727218,1.910425 0 0 0 6.2792969,8.0566406 1.727218,1.910425 0 0 0 6.34375,8.5703125 L 8.6347656,6.2773438 A 1.727218,1.910425 0 0 0 8.0058594,6.1464844 Z M 9.6445312,7.4472656 7.296875,9.796875 A 1.727218,1.910425 0 0 0 8.0058594,9.9667969 1.727218,1.910425 0 0 0 9.734375,8.0566406 1.727218,1.910425 0 0 0 9.6445312,7.4472656 Z" /><path
       id="path117"
       style="display:inline;fill:none;fill-opacity:1;stroke:#6b6f73;stroke-width:1.141;stroke-linecap:round;stroke-linejoin:round;stroke-dasharray:none;stroke-opacity:1;paint-order:fill markers stroke"
       d="M 12.707392,3.2929297 3.3003883,12.706644 m 9.6003627,0.171519 a 6.9038153,6.8850288 45 0 1 -9.7501843,-0.01328 6.9038153,6.8850288 45 0 1 -0.013284,-9.7501849 6.9038153,6.8850288 45 0 1 9.7501853,0.013284 6.9038153,6.8850288 45 0 1 0.01328,9.7501849 z"
       inkscape:label="no" /></g></svg>
