<?xml version="1.0" encoding="UTF-8" standalone="no"?>
<svg
   width="100"
   height="100"
   viewBox="0 0 100 100"
   fill="none"
   version="1.1"
   id="svg7"
   sodipodi:docname="favicon.svg"
   inkscape:export-filename="favicon.png"
   inkscape:export-xdpi="96"
   inkscape:export-ydpi="96"
   inkscape:version="1.4 (e7c3feb1, 2024-10-09)"
   xmlns:inkscape="http://www.inkscape.org/namespaces/inkscape"
   xmlns:sodipodi="http://sodipodi.sourceforge.net/DTD/sodipodi-0.dtd"
   xmlns="http://www.w3.org/2000/svg"
   xmlns:svg="http://www.w3.org/2000/svg">
  <defs
     id="defs7" />
  <sodipodi:namedview
     id="namedview7"
     pagecolor="#505050"
     bordercolor="#eeeeee"
     borderopacity="1"
     inkscape:showpageshadow="0"
     inkscape:pageopacity="0"
     inkscape:pagecheckerboard="0"
     inkscape:deskcolor="#505050"
     inkscape:zoom="4"
     inkscape:cx="30.25"
     inkscape:cy="48.25"
     inkscape:window-width="1104"
     inkscape:window-height="783"
     inkscape:window-x="0"
     inkscape:window-y="25"
     inkscape:window-maximized="0"
     inkscape:current-layer="svg7"
     showguides="true">
    <sodipodi:guide
       position="-18.25,50.25"
       orientation="0,-1"
       id="guide7"
       inkscape:locked="false" />
    <sodipodi:guide
       position="49.75,77"
       orientation="1,0"
       id="guide8"
       inkscape:locked="false" />
    <sodipodi:guide
       position="37.25,76.25"
       orientation="1,0"
       id="guide9"
       inkscape:locked="false" />
    <sodipodi:guide
       position="29.75,71.5"
       orientation="1,0"
       id="guide10"
       inkscape:locked="false" />
    <sodipodi:guide
       position="70,57.25"
       orientation="1,0"
       id="guide11"
       inkscape:locked="false" />
    <sodipodi:guide
       position="62.5,101"
       orientation="1,0"
       id="guide1"
       inkscape:locked="false" />
  </sodipodi:namedview>
  <path
     d="M 4.513695,55.988266 V 43.038214 l 21.467392,-7.222149 v 7.471187 L 8.5195766,48.952905 v 1.12067 l 17.4615104,5.665652 v 7.471186 z"
     fill="#ea4f92"
     id="path1"
     style="stroke-width:2.82732"
     inkscape:label="&lt;" />
  <path
     d="m 64.375567,53.498823 c -0.651665,3.399784 -2.204214,6.142956 -4.657342,8.229246 -2.414871,2.086277 -5.653838,3.129429 -9.717169,3.129429 -2.108306,0 -4.082159,-0.32831 -5.922147,-0.985184 -1.801749,-0.656889 -3.373415,-1.603254 -4.715011,-2.839662 -1.341595,-1.236417 -2.395752,-2.76231 -3.16217,-4.578243 -0.766702,-1.815936 -1.150072,-3.88281 -1.150072,-6.200911 V 49.55804 c 0,-2.318089 0.383404,-4.40438 1.150072,-6.258851 0.766387,-1.854482 1.820575,-3.438608 3.16217,-4.752098 1.380132,-1.313492 2.970927,-2.318102 4.772376,-3.013529 1.839986,-0.695459 3.795014,-1.043146 5.864782,-1.043146 3.986546,0 7.206384,1.043146 9.659801,3.129438 2.491369,2.08628 4.063045,4.829461 4.71471,8.229232 l -7.129591,1.854482 c -0.230061,-1.700035 -0.958502,-3.167973 -2.185098,-4.404379 -1.226552,-1.23642 -2.951508,-1.854482 -5.174853,-1.854482 -1.034741,0 -2.012403,0.193246 -2.932391,0.579544 -0.920039,0.386301 -1.724955,0.946614 -2.414882,1.680619 -0.689872,0.695458 -1.245682,1.564717 -1.667288,2.607854 -0.383301,1.004618 -0.575208,2.144245 -0.575208,3.41919 v 0.34773 c 0,1.274952 0.191803,2.41459 0.575208,3.419189 0.421656,0.965741 0.977425,1.777109 1.667288,2.433999 0.689874,0.656889 1.494883,1.159056 2.414882,1.506765 0.919936,0.309159 1.89765,0.46364 2.932391,0.46364 2.223345,0 3.910043,-0.56011 5.059823,-1.680616 1.188318,-1.120511 1.955027,-2.627273 2.300128,-4.520292 z"
     fill="#6ccf5d"
     id="path2"
     style="stroke-width:2.8976"
     inkscape:label="C" />
  <path
     d="m 74.584671,63.210413 v -7.471186 l 17.461518,-5.665652 v -1.12067 L 74.584671,43.287252 v -7.471187 l 21.467402,7.222149 v 12.950052 z"
     fill="#ea4f92"
     id="path7"
     style="stroke-width:2.82732"
     inkscape:label="&gt;" />
</svg>
