<svg width="16" height="16" viewBox="0 0 16 16" fill="none" xmlns="http://www.w3.org/2000/svg">
    <path d="M9.33333 9.99967H14M2 9.99967H3.33333M3.33333 9.99967C3.33333 10.9201 4.07953 11.6663 5 11.6663C5.92047 11.6663 6.66667 10.9201 6.66667 9.99967C6.66667 9.0792 5.92047 8.33301 5 8.33301C4.07953 8.33301 3.33333 9.0792 3.33333 9.99967ZM13.3333 5.99967H14M2 5.99967H6.66667M11 7.66634C10.0795 7.66634 9.33333 6.92015 9.33333 5.99967C9.33333 5.0792 10.0795 4.33301 11 4.33301C11.9205 4.33301 12.6667 5.0792 12.6667 5.99967C12.6667 6.92015 11.9205 7.66634 11 7.66634Z" stroke="white" stroke-width="1.5" stroke-linecap="round" stroke-linejoin="round"/>
</svg>