<?xml version="1.0" encoding="UTF-8" standalone="no"?>
<svg
   width="16"
   height="16"
   viewBox="0 0 16 16"
   fill="none"
   version="1.1"
   id="svg1"
   xmlns="http://www.w3.org/2000/svg"
   xmlns:svg="http://www.w3.org/2000/svg">
  <defs
     id="defs1" />
  <path
     d="m 8.8307,2.30586 0.81397,0.69367 c 0.20507,0.17476 0.45973,0.28041 0.72823,0.30184 l 1.0661,0.08496 c 0.6267,0.05002 1.1246,0.54753 1.1746,1.17429 l 0.0847,1.0662 c 0.0215,0.26858 0.1275,0.52357 0.3023,0.72864 l 0.6933,0.81375 c 0.4078,0.47855 0.4079,1.18248 1e-4,1.66103 L 13.0006,9.64412 C 12.8259,9.84918 12.72,10.1043 12.6985,10.3729 l -0.0853,1.066 c -0.05,0.6267 -0.547,1.1246 -1.1738,1.1746 L 10.373,12.6986 C 10.1044,12.72 9.84957,12.8254 9.6445,13.0001 l -0.8138,0.6937 c -0.47855,0.4078 -1.18291,0.4079 -1.66146,10e-5 L 6.35544,13.0002 C 6.15037,12.8254 5.8955,12.7199 5.62692,12.6984 L 4.56051,12.6135 C 3.93376,12.5635 3.4367,12.0658 3.38669,11.439 L 3.3014,10.3729 C 3.27997,10.1043 3.17408,9.84947 2.99932,9.6444 L 2.30596,8.83028 C 1.89814,8.35173 1.89795,7.64802 2.30577,7.16947 L 2.99975,6.35534 C 3.17451,6.15027 3.27938,5.8954 3.30082,5.62683 L 3.3861,4.56074 C 3.43612,3.93399 3.93461,3.43628 4.56136,3.38627 L 5.62659,3.3013 C 5.89517,3.27987 6.15016,3.17431 6.35523,2.99955 L 7.16931,2.30586 c 0.47855,-0.40781 1.18284,-0.40781 1.66139,0 z"
     stroke="#f94243"
     stroke-width="1.5"
     stroke-linecap="round"
     stroke-linejoin="round"
     id="path1"
     style="stroke:#444c55;stroke-opacity:1" />
</svg>
