<svg xmlns="http://www.w3.org/2000/svg" width="16" height="16" viewBox="0 0 16 16" fill="none">
    <path d="M10.781 6.11412L14.5522 9.88535M10.781 9.88535L14.5522 6.11412M4.98678 10.271L6.10361 11.653C6.6858 12.3735 6.9769 12.7338 7.23194 12.773C7.45271 12.8069 7.67582 12.728 7.8262 12.5629C7.99992 12.3721 7.99992 11.9089 7.99992 10.9826V5.01684C7.99992 4.09054 7.99992 3.62739 7.8262 3.4366C7.67582 3.27143 7.45271 3.19256 7.23194 3.2265C6.9769 3.26572 6.6858 3.62595 6.10361 4.34642L4.98678 5.72849C4.86917 5.87404 4.81036 5.94681 4.7376 5.99918C4.67313 6.04557 4.6009 6.08007 4.52429 6.10105C4.43783 6.12473 4.34427 6.12473 4.15714 6.12473H3.20825C2.70412 6.12473 2.45205 6.12473 2.24834 6.19203C1.84746 6.32446 1.53298 6.63894 1.40055 7.03982C1.33325 7.24353 1.33325 7.4956 1.33325 7.99973C1.33325 8.50387 1.33325 8.75594 1.40055 8.95964C1.53298 9.36053 1.84746 9.675 2.24834 9.80744C2.45205 9.87473 2.70412 9.87473 3.20825 9.87473H4.15714C4.34427 9.87473 4.43783 9.87473 4.52429 9.89842C4.6009 9.9194 4.67313 9.9539 4.7376 10.0003C4.81036 10.0527 4.86917 10.1254 4.98678 10.271Z" stroke="white" stroke-width="1.5" stroke-linecap="round" stroke-linejoin="round"/>
</svg>