<svg xmlns="http://www.w3.org/2000/svg" width="16" height="16" viewBox="0 0 16 16" fill="none">
    <path d="M4 6.13346V9.8668C4 10.6135 4 10.9867 4.14532 11.2719C4.27316 11.5228 4.47698 11.727 4.72786 11.8548C5.0128 12 5.386 12 6.13127 12H9.86873C10.614 12 10.9867 12 11.2716 11.8548C11.5225 11.727 11.727 11.5228 11.8548 11.2719C12 10.987 12 10.6143 12 9.86905V6.13127C12 5.386 12 5.0128 11.8548 4.72786C11.727 4.47698 11.5225 4.27316 11.2716 4.14532C10.9864 4 10.6135 4 9.8668 4H6.13346C5.38673 4 5.01308 4 4.72786 4.14532C4.47698 4.27316 4.27316 4.47698 4.14532 4.72786C4 5.01308 4 5.38673 4 6.13346Z" stroke="white" stroke-width="1.5" stroke-linecap="round" stroke-linejoin="round"/>
</svg>