<svg width="16" height="16" viewBox="0 0 16 16" fill="none" xmlns="http://www.w3.org/2000/svg">
    <path d="M5.33268 8.00033H7.99935M7.99935 8.00033H10.666M7.99935 8.00033V10.667M7.99935 8.00033V5.33366M2.66602 11.2005V4.80046C2.66602 4.05372 2.66602 3.68007 2.81134 3.39486C2.93917 3.14397 3.143 2.94015 3.39388 2.81232C3.6791 2.66699 4.05274 2.66699 4.79948 2.66699H11.1995C11.9462 2.66699 12.3194 2.66699 12.6046 2.81232C12.8555 2.94015 13.0597 3.14397 13.1875 3.39486C13.3328 3.68007 13.3328 4.05344 13.3328 4.80018V11.2002C13.3328 11.9469 13.3328 12.3203 13.1875 12.6055C13.0597 12.8564 12.8555 13.0606 12.6046 13.1885C12.3197 13.3337 11.947 13.3337 11.2017 13.3337H4.79729C4.05201 13.3337 3.67882 13.3337 3.39388 13.1885C3.143 13.0606 2.93917 12.8565 2.81134 12.6056C2.66602 12.3204 2.66602 11.9472 2.66602 11.2005Z" stroke="#262A2F" stroke-width="1.5" stroke-linecap="round" stroke-linejoin="round"/>
</svg>