<svg xmlns="http://www.w3.org/2000/svg" width="16" height="16" viewBox="0 0 16 16" fill="none">
    <path d="M6.87176 9.12815L10.1025 5.89738M13.4074 3.9257L10.6804 12.7888C10.436 13.583 10.3137 13.9804 10.1029 14.1121C9.92004 14.2263 9.69367 14.2454 9.49455 14.1628C9.26494 14.0675 9.07858 13.6955 8.70681 12.9519L6.97951 9.49732C6.92051 9.37933 6.89099 9.32058 6.85158 9.26945C6.81661 9.22409 6.77625 9.18321 6.73089 9.14824C6.68092 9.10973 6.62316 9.08085 6.51043 9.0245L3.04787 7.29321C2.30433 6.92145 1.93253 6.73539 1.83726 6.50578C1.75463 6.30665 1.77347 6.08007 1.88771 5.89723C2.01944 5.68641 2.41674 5.56394 3.21128 5.31946L12.0743 2.59237C12.699 2.40017 13.0114 2.30415 13.2224 2.38161C13.4062 2.44907 13.5511 2.59381 13.6185 2.77759C13.6959 2.98847 13.5999 3.30076 13.4079 3.92478L13.4074 3.9257Z" stroke="white" stroke-width="1.5" stroke-linecap="round" stroke-linejoin="round"/>
</svg>