<svg width="16" height="16" viewBox="0 0 16 16" fill="none" xmlns="http://www.w3.org/2000/svg">
    <path d="M6.87152 9.12839L10.1023 5.89763M13.4072 3.92595L10.6801 12.789C10.4357 13.5833 10.3134 13.9806 10.1026 14.1123C9.9198 14.2266 9.69343 14.2457 9.4943 14.163C9.26469 14.0678 9.07833 13.6957 8.70657 12.9522L6.97926 9.49756C6.92027 9.37957 6.89074 9.32082 6.85133 9.2697C6.81636 9.22433 6.77601 9.18346 6.73064 9.14849C6.68068 9.10998 6.62292 9.0811 6.51019 9.02474L3.04762 7.29346C2.30409 6.92169 1.93228 6.73563 1.83701 6.50602C1.75439 6.30689 1.77323 6.08031 1.88747 5.89748C2.01919 5.68666 2.4165 5.56418 3.21104 5.31971L12.0741 2.59261C12.6987 2.40041 13.0112 2.30439 13.2222 2.38185C13.4059 2.44932 13.5508 2.59406 13.6183 2.77783C13.6957 2.98872 13.5996 3.30101 13.4076 3.92502L13.4072 3.92595Z" stroke="#262A2F" stroke-width="1.5" stroke-linecap="round" stroke-linejoin="round"/>
</svg>